<svg width="24" height="24" viewBox="0 0 24 24" fill="none" xmlns="http://www.w3.org/2000/svg">
<g clip-path="url(#clip0_10_1858)">
<path fill-rule="evenodd" clip-rule="evenodd" d="M12 2C12.5523 2 13 2.44772 13 3V3.9616L13.654 3.6159C14.1423 3.3578 14.7473 3.54439 15.0054 4.03266C15.2635 4.52093 15.0769 5.12597 14.5887 5.38407L13 6.22382V8.126C13.7149 8.30999 14.3525 8.68665 14.854 9.19732L16.5023 8.24569L16.4352 6.45001C16.4146 5.89811 16.8453 5.434 17.3972 5.41338C17.9491 5.39276 18.4132 5.82345 18.4338 6.37535L18.4614 7.11458L19.2942 6.63378C19.7725 6.35764 20.3841 6.52152 20.6602 6.99981C20.9364 7.4781 20.7725 8.08969 20.2942 8.36583L19.4614 8.84663L20.0878 9.24016C20.5555 9.53396 20.6964 10.1512 20.4026 10.6189C20.1088 11.0865 19.4915 11.2275 19.0238 10.9337L17.5023 9.97774L15.855 10.9288C15.9496 11.2697 16.0001 11.629 16.0001 12C16.0001 12.371 15.9496 12.7303 15.855 13.0712L17.5023 14.0223L19.0239 13.0663C19.4915 12.7725 20.1088 12.9135 20.4026 13.3811C20.6964 13.8488 20.5555 14.466 20.0879 14.7598L19.4615 15.1534L20.2942 15.6342C20.7725 15.9103 20.9364 16.5219 20.6603 17.0002C20.3841 17.4785 19.7725 17.6424 19.2942 17.3662L18.4615 16.8854L18.4339 17.6246C18.4132 18.1765 17.9491 18.6072 17.3972 18.5866C16.8453 18.566 16.4146 18.1019 16.4353 17.55L16.5023 15.7543L14.854 14.8027C14.3525 15.3133 13.7149 15.69 13 15.874V17.7762L14.5887 18.6159C15.0769 18.874 15.2635 19.4791 15.0054 19.9673C14.7473 20.4556 14.1423 20.6422 13.654 20.3841L13 20.0384V21C13 21.5523 12.5523 22 12 22C11.4477 22 11 21.5523 11 21V20.0384L10.346 20.3841C9.85775 20.6422 9.25271 20.4556 8.99461 19.9673C8.73651 19.4791 8.9231 18.874 9.41137 18.6159L11 17.7762V15.874C10.285 15.6899 9.64739 15.3132 9.14581 14.8024L7.49764 15.7539L7.56472 17.5496C7.58534 18.1015 7.15464 18.5656 6.60274 18.5862C6.05085 18.6069 5.58673 18.1762 5.56611 17.6243L5.5385 16.885L4.70573 17.3658C4.22744 17.642 3.61585 17.4781 3.33971 16.9998C3.06357 16.5215 3.22744 15.9099 3.70573 15.6338L4.5385 15.153L3.91212 14.7595C3.44447 14.4657 3.30353 13.8484 3.59734 13.3807C3.89114 12.9131 4.50842 12.7721 4.97608 13.0659L6.49764 14.0219L8.14501 13.0708C8.05055 12.73 8.00008 12.3709 8.00008 12C8.00008 11.6291 8.05056 11.27 8.14501 10.9292L6.49769 9.97813L4.97613 10.9341C4.50847 11.2279 3.89119 11.0869 3.59739 10.6193C3.30358 10.1516 3.44451 9.53435 3.91217 9.24054L4.53855 8.84701L3.70578 8.36622C3.22749 8.09007 3.06361 7.47848 3.33976 7.00019C3.6159 6.5219 4.22749 6.35802 4.70578 6.63417L5.53855 7.11496L5.56616 6.37574C5.58678 5.82384 6.05089 5.39315 6.60279 5.41376C7.15469 5.43438 7.58538 5.89849 7.56477 6.45039L7.49769 8.24608L9.14583 9.19763C9.6474 8.68683 10.285 8.31007 11 8.12603V6.22382L9.41137 5.38407C8.9231 5.12597 8.73651 4.52093 8.99461 4.03266C9.25271 3.54439 9.85775 3.3578 10.346 3.6159L11 3.9616V3C11 2.44772 11.4477 2 12 2ZM12 14C13.1046 14 14 13.1046 14 12C14 10.8954 13.1046 10 12 10C10.8954 10 10 10.8954 10 12C10 13.1046 10.8954 14 12 14Z" fill="black"/>
</g>
<defs>
<clipPath id="clip0_10_1858">
<rect width="24" height="24" fill="white"/>
</clipPath>
</defs>
</svg>
