<svg width="24" height="24" viewBox="0 0 24 24" fill="none" xmlns="http://www.w3.org/2000/svg">
<g clip-path="url(#clip0_10_1870)">
<path fill-rule="evenodd" clip-rule="evenodd" d="M4.71205 18.1411C3.17504 16.4509 2.75545 14.3134 2.94238 12.4026C3.14844 10.2963 4.10858 8.27454 5.35994 7.23172C7.03176 5.83852 8.78779 5.26703 10.3116 4.98711C11.0526 4.85099 11.8027 4.77382 12.5524 4.70383C12.9564 4.66612 13.3648 4.62799 13.7576 4.5298C14.5864 4.3226 15.403 3.98692 16.0755 3.45275C16.3841 3.2077 16.6961 2.95985 17.1109 3.0061C17.413 3.03977 17.6833 3.20898 17.8456 3.46595C21.0461 8.53338 20.5629 13.9124 17.8896 17.3004C16.5553 18.9914 14.6799 20.1713 12.4935 20.5193C10.5849 20.8231 8.49968 20.4838 6.39862 19.3837C6.20761 19.9864 6.07034 20.5781 5.98983 21.1416C5.91173 21.6884 5.4052 22.0683 4.85846 21.9902C4.31173 21.9121 3.93183 21.4055 4.00993 20.8588C4.13343 19.9943 4.36919 19.0733 4.71205 18.1411ZM10.6729 6.9542C11.3762 6.825 12.0372 6.76287 12.6791 6.70038C13.2033 6.64934 13.7312 6.59794 14.2427 6.47008C15.3032 6.20495 16.1205 5.81142 16.6937 5.46368C18.871 9.58065 18.263 13.5984 16.3195 16.0616C15.2717 17.3895 13.8311 18.2812 12.1791 18.5442C10.697 18.7801 8.97993 18.5196 7.15048 17.5178C8.26244 15.2513 10.0804 13.078 12.4471 11.8946C12.9411 11.6477 13.1413 11.047 12.8943 10.553C12.6473 10.059 12.0466 9.8588 11.5527 10.1058C8.94525 11.4095 6.94677 13.6637 5.64834 16.0692C5.0068 15.0193 4.81547 13.7975 4.93288 12.5973C5.10193 10.8693 5.89232 9.3915 6.64032 8.76816C7.9684 7.66141 9.36846 7.19383 10.6729 6.9542Z" fill="black"/>
</g>
<defs>
<clipPath id="clip0_10_1870">
<rect width="24" height="24" fill="white"/>
</clipPath>
</defs>
</svg>
